<svg xmlns="http://www.w3.org/2000/svg" version="1.1" xmlns:xlink="http://www.w3.org/1999/xlink" xmlns:svgjs="http://svgjs.dev/svgjs" width="1500" height="1500" viewBox="0 0 1500 1500"><rect width="1500" height="1500" fill="#ffffff"></rect><g transform="matrix(0.6666666666666666,0,0,0.6666666666666666,249.39393939393938,438.5856950067477)"><svg viewBox="0 0 396 247" data-background-color="#3e373d" preserveAspectRatio="xMidYMid meet" height="935" width="1500" xmlns="http://www.w3.org/2000/svg" xmlns:xlink="http://www.w3.org/1999/xlink"><g id="tight-bounds" transform="matrix(1,0,0,1,0.2400000000000091,-0.09999999999999432)"><svg viewBox="0 0 395.52 247.2" height="247.2" width="395.52"><g><svg></svg></g><g><svg viewBox="0 0 395.52 247.2" height="247.2" width="395.52"><g transform="matrix(1,0,0,1,39.55199999999999,87.47192576751871)"><svg viewBox="0 0 316.416 72.25614846496255" height="72.25614846496255" width="316.416"><g><svg viewBox="0 0 422.46548475197676 96.4734045925655" height="72.25614846496255" width="316.416"><g transform="matrix(1,0,0,1,0,13.33315504861072)"><svg viewBox="0 0 316.416 69.80709449534406" height="69.80709449534406" width="316.416"><g id="textblocktransform"><svg viewBox="0 0 316.416 69.80709449534406" height="69.80709449534406" width="316.416" id="textblock"><g><svg viewBox="0 0 316.416 69.80709449534406" height="69.80709449534406" width="316.416"><g transform="matrix(1,0,0,1,0,0)"><svg width="316.416" viewBox="5 -34.1 157.270605975214 34.7" height="69.80709449534406" data-palette-color="#ddd8c3"><path d="M24.35 0L5 0 5-31.4 24.35-31.4 24.35-28.05 8.9-28.05 8.9-17.5 23.45-17.5 23.45-14.15 8.9-14.15 8.9-3.4 24.35-3.4 24.35 0ZM37.05 0L33.15 0 33.15-34.1 37.05-34.1 37.05 0ZM55.45 0.6L55.45 0.6Q52.34 0.6 49.91-0.99 47.47-2.58 46.06-5.4 44.64-8.22 44.64-11.9L44.64-11.9Q44.64-15.83 46.05-18.65 47.45-21.48 49.88-22.99 52.32-24.5 55.45-24.5L55.45-24.5Q58.17-24.5 60.09-23.4 62.02-22.3 63.2-20.43 64.37-18.55 64.83-16.19 65.3-13.83 65.09-11.3L65.09-11.3 47.8-11.3 47.8-13.7 62.52-13.7 61.37-12.95Q61.45-14.43 61.21-15.9 60.97-17.38 60.32-18.61 59.67-19.85 58.5-20.6 57.32-21.35 55.49-21.35L55.49-21.35Q53.2-21.35 51.64-20.18 50.09-19 49.32-17.09 48.55-15.18 48.55-12.95L48.55-12.95 48.55-11.35Q48.55-8.85 49.31-6.88 50.07-4.9 51.59-3.75 53.12-2.6 55.45-2.6L55.45-2.6Q57.77-2.6 59.27-3.73 60.77-4.85 61.09-7.05L61.09-7.05 65.14-7.05Q64.77-4.67 63.45-2.96 62.12-1.25 60.07-0.33 58.02 0.6 55.45 0.6ZM78.22 0L68.67-23.9 73.12-23.9 80.62-3.35 80.07-3.35 87.57-23.9 92.02-23.9 82.47 0 78.22 0ZM116.14 0L112.74 0 112.24-5.25 112.24-15.5Q112.24-18.73 110.87-20.14 109.49-21.55 106.74-21.55L106.74-21.55Q105.19-21.55 103.93-21.1 102.67-20.65 101.93-19.71 101.19-18.78 101.19-17.3L101.19-17.3 96.84-17.3Q96.84-19.9 98.11-21.49 99.39-23.08 101.63-23.79 103.87-24.5 106.74-24.5L106.74-24.5Q109.49-24.5 111.62-23.58 113.74-22.65 114.94-20.64 116.14-18.63 116.14-15.4L116.14-15.4 116.14 0ZM104.59 0.6L104.59 0.6Q101.64 0.6 99.72-0.45 97.79-1.5 96.84-3.18 95.89-4.85 95.89-6.7L95.89-6.7Q95.89-9.13 97.1-10.65 98.31-12.18 100.42-12.89 102.52-13.6 105.14-13.6L105.14-13.6Q107.02-13.6 108.9-13.23 110.79-12.85 112.59-12.2L112.59-12.2 112.59-9.75Q111.09-10.35 109.2-10.7 107.31-11.05 105.74-11.05L105.74-11.05Q103.34-11.05 101.69-10.06 100.04-9.08 100.04-6.7L100.04-6.7Q100.04-4.95 101.3-3.7 102.56-2.45 105.34-2.45L105.34-2.45Q107.29-2.45 108.85-3.36 110.42-4.28 111.33-5.65 112.24-7.03 112.24-8.4L112.24-8.4 113.19-8.4Q113.19-6 112.15-3.95 111.12-1.9 109.19-0.65 107.27 0.6 104.59 0.6ZM132.81 0.6L132.81 0.6Q130.86 0.6 129.31-0.15 127.76-0.9 126.86-2.4 125.96-3.9 125.96-6.15L125.96-6.15 125.96-30.55 129.81-30.55 129.81-6.25Q129.81-2.55 133.26-2.55L133.26-2.55Q134.29-2.55 135.25-2.78 136.21-3 137.41-3.45L137.41-3.45 137.96-0.65Q136.69-0.1 135.43 0.25 134.16 0.6 132.81 0.6ZM137.36-21.2L122.11-21.2 122.11-23.9 137.36-23.9 137.36-21.2ZM152.56 0.6L152.56 0.6Q149.46 0.6 147.02-0.99 144.59-2.58 143.17-5.4 141.76-8.22 141.76-11.9L141.76-11.9Q141.76-15.83 143.16-18.65 144.56-21.48 147-22.99 149.44-24.5 152.56-24.5L152.56-24.5Q155.28-24.5 157.21-23.4 159.14-22.3 160.31-20.43 161.49-18.55 161.95-16.19 162.41-13.83 162.21-11.3L162.21-11.3 144.91-11.3 144.91-13.7 159.64-13.7 158.49-12.95Q158.56-14.43 158.32-15.9 158.09-17.38 157.44-18.61 156.78-19.85 155.61-20.6 154.44-21.35 152.61-21.35L152.61-21.35Q150.31-21.35 148.76-20.18 147.21-19 146.44-17.09 145.66-15.18 145.66-12.95L145.66-12.95 145.66-11.35Q145.66-8.85 146.42-6.88 147.19-4.9 148.71-3.75 150.24-2.6 152.56-2.6L152.56-2.6Q154.89-2.6 156.39-3.73 157.89-4.85 158.21-7.05L158.21-7.05 162.26-7.05Q161.89-4.67 160.56-2.96 159.24-1.25 157.19-0.33 155.14 0.6 152.56 0.6Z" opacity="1" transform="matrix(1,0,0,1,0,0)" fill="#000000" class="wordmark-text-0" data-fill-palette-color="primary" id="text-0"></path></svg></g></svg></g></svg></g></svg></g><g transform="matrix(1,0,0,1,332.8957796400828,0)"><svg viewBox="0 0 89.56970511189391 96.4734045925655" height="96.4734045925655" width="89.56970511189391"><g><svg xmlns="http://www.w3.org/2000/svg" xmlns:xlink="http://www.w3.org/1999/xlink" version="1.1" x="0" y="0" viewBox="3.505 1.3084999999999996 56.989 61.38149999999999" enable-background="new 0 0 64 64" xml:space="preserve" height="96.4734045925655" width="89.56970511189391" class="icon-icon-0" data-fill-palette-color="accent" id="icon-0"><g fill="#c9a181" data-fill-palette-color="accent"><g fill="#c9a181" data-fill-palette-color="accent"><path d="M12.098 43.262l-0.586 0.586V8.142l0.586 0.586c0.391 0.391 0.903 0.586 1.415 0.586 0.512 0 1.024-0.196 1.415-0.586 0.391-0.391 0.586-0.903 0.586-1.415 0-0.512-0.195-1.024-0.586-1.415l-4.003-4.003c-0.782-0.782-2.049-0.782-2.83 0L4.092 5.898C3.701 6.289 3.505 6.801 3.505 7.313c0 0.512 0.195 1.024 0.586 1.415 0.782 0.782 2.049 0.782 2.83 0l0.586-0.586v35.706l-0.586-0.586c-0.782-0.782-2.049-0.782-2.83 0-0.391 0.391-0.586 0.903-0.586 1.415 0 0.512 0.195 1.024 0.586 1.415l4.003 4.003c0.391 0.391 0.903 0.586 1.415 0.586 0.512 0 1.024-0.195 1.415-0.586l4.003-4.003c0.391-0.391 0.586-0.903 0.586-1.415 0-0.512-0.195-1.024-0.586-1.415C14.147 42.48 12.88 42.48 12.098 43.262z" fill="#000000" data-fill-palette-color="accent"></path><path d="M58.434 57.953c0.014-0.017 0.026-0.035 0.039-0.052 0.026-0.035 0.053-0.069 0.077-0.105 0.016-0.025 0.031-0.05 0.046-0.075 0.019-0.031 0.038-0.061 0.055-0.093 0.014-0.026 0.026-0.054 0.039-0.081 0.015-0.032 0.031-0.064 0.045-0.097 0.011-0.027 0.02-0.054 0.03-0.081 0.013-0.035 0.026-0.069 0.036-0.104 0.008-0.026 0.014-0.053 0.021-0.08 0.009-0.036 0.019-0.073 0.027-0.11 0.006-0.03 0.009-0.06 0.014-0.09 0.005-0.034 0.011-0.068 0.015-0.103 0.005-0.053 0.007-0.106 0.008-0.159 0-0.012 0.002-0.024 0.002-0.037 0-0.011-0.001-0.022-0.002-0.033-0.001-0.055-0.003-0.109-0.008-0.164-0.003-0.033-0.009-0.066-0.014-0.099-0.005-0.032-0.008-0.063-0.014-0.095-0.007-0.036-0.017-0.07-0.026-0.105-0.007-0.028-0.013-0.057-0.022-0.085-0.01-0.034-0.023-0.066-0.035-0.099-0.01-0.029-0.02-0.058-0.032-0.086-0.013-0.031-0.028-0.06-0.042-0.09-0.014-0.029-0.027-0.058-0.042-0.087-0.016-0.029-0.033-0.057-0.05-0.085-0.017-0.028-0.032-0.056-0.05-0.083-0.022-0.033-0.046-0.063-0.07-0.095-0.016-0.021-0.03-0.042-0.047-0.062-0.043-0.052-0.088-0.102-0.136-0.15l-4.001-4.001c-0.782-0.782-2.049-0.782-2.83 0-0.782 0.781-0.782 2.049 0 2.83l0.586 0.586H26.166l0.586-0.586c0.782-0.781 0.782-2.049 0-2.83-0.782-0.782-2.049-0.782-2.83 0l-4.001 4.001c-0.048 0.048-0.093 0.098-0.136 0.15-0.016 0.019-0.029 0.04-0.044 0.059-0.024 0.032-0.049 0.064-0.072 0.098-0.018 0.026-0.033 0.053-0.049 0.08-0.018 0.029-0.036 0.058-0.052 0.088-0.015 0.028-0.027 0.056-0.041 0.085-0.015 0.031-0.03 0.061-0.043 0.093-0.011 0.027-0.02 0.055-0.03 0.083-0.012 0.034-0.025 0.067-0.036 0.102-0.008 0.027-0.014 0.055-0.021 0.082-0.009 0.036-0.019 0.071-0.026 0.108-0.006 0.031-0.01 0.062-0.014 0.093-0.005 0.033-0.011 0.067-0.015 0.101-0.005 0.054-0.007 0.108-0.008 0.162 0 0.012-0.002 0.023-0.002 0.035 0 0.012 0.002 0.023 0.002 0.035 0.001 0.054 0.003 0.108 0.008 0.161 0.003 0.034 0.01 0.068 0.015 0.101 0.005 0.031 0.008 0.062 0.014 0.092 0.007 0.037 0.017 0.073 0.027 0.109 0.007 0.027 0.013 0.054 0.021 0.081 0.011 0.035 0.024 0.069 0.036 0.103 0.01 0.027 0.019 0.055 0.03 0.082 0.013 0.032 0.029 0.063 0.044 0.095 0.013 0.028 0.025 0.055 0.04 0.082 0.017 0.031 0.036 0.061 0.054 0.091 0.015 0.026 0.03 0.052 0.047 0.077 0.024 0.036 0.051 0.07 0.077 0.104 0.013 0.017 0.025 0.036 0.039 0.053 0.043 0.053 0.089 0.104 0.138 0.152l3.999 3.999c0.391 0.391 0.903 0.586 1.415 0.586 0.512 0 1.024-0.195 1.415-0.586 0.782-0.781 0.782-2.049 0-2.83l-0.586-0.586h25.887l-0.586 0.586c-0.782 0.781-0.782 2.049 0 2.83 0.391 0.391 0.903 0.586 1.415 0.586 0.512 0 1.024-0.195 1.415-0.586l3.999-3.999C58.344 58.057 58.39 58.006 58.434 57.953z" fill="#000000" data-fill-palette-color="accent"></path></g><path d="M54.527 14.384V7.115c0-0.508-0.412-0.92-0.92-0.92h-5.52c-0.508 0-0.92 0.412-0.92 0.92v2.709l-6.504-4.028c-1.296-0.802-2.936-0.802-4.232 0.002L16.66 18.068v9.453l3.684-2.286v17.163c0 1.722 1.4 3.122 3.122 3.122h30.217c1.722 0 3.122-1.4 3.122-3.122V25.242l3.689 2.285V18.08L54.527 14.384zM52.669 41.384h-8.867V25.763c0-0.577-0.468-1.046-1.046-1.046h-8.365c-0.577 0-1.046 0.468-1.046 1.046v5.228h3.137c0.577 0 1.046 0.468 1.046 1.046 0 0.577-0.468 1.046-1.046 1.046h-3.137v8.302H24.48V22.668l3.694-2.293 6.666-4.137 3.711-2.303 3.718 2.303 6.68 4.137 3.72 2.304V41.384z" fill="#000000" data-fill-palette-color="accent"></path></g></svg></g></svg></g></svg></g></svg></g><g><path d="M0 247.2v-247.2h395.52v247.2zM390.805 242.485v-237.77h-386.09v237.77z" fill="#000000" fill-rule="nonzero" stroke="none" stroke-width="1" stroke-linecap="butt" stroke-linejoin="miter" stroke-miterlimit="10" stroke-dasharray="" stroke-dashoffset="0" font-family="none" font-weight="none" font-size="none" text-anchor="none" style="mix-blend-mode: normal" data-fill-palette-color="tertiary"></path></g></svg></g><defs></defs></svg><rect width="395.52" height="247.2" fill="none" stroke="none" visibility="hidden"></rect></g></svg></g></svg>